#N canvas 0 23 1366 719 10;
#X obj 24 112 hsl 128 15 0 10 0 0 empty empty empty -2 -8 0 10 -262144
-1 -1 0 1;
#X obj 26 175 hsl 128 15 0.9 1.15 0 0 empty empty empty -2 -8 0 10
-262144 -1 -1 0 1;
#X obj 25 217 hsl 128 15 0 255 0 0 empty empty empty -2 -8 0 10 -262144
-1 -1 0 1;
#X obj 5 623 pd-osc/oSend 192.168.111.31 9090;
#X obj 18 514 qlimitor 100;
#X floatatom 47 320 5 0 0 0 - - -, f 5;
#X obj 23 342 t b;
#X floatatom 82 321 5 0 0 0 - - -, f 5;
#X floatatom 117 322 5 0 0 0 - - -, f 5;
#X floatatom 152 323 5 0 0 0 - - -, f 5;
#X obj 18 537 send \$0-OSC;
#X obj 5 589 r \$0-OSC;
#X floatatom 47 387 5 0 0 0 - - -, f 5;
#X obj 23 409 t b;
#X floatatom 82 388 5 0 0 0 - - -, f 5;
#X floatatom 117 389 5 0 0 0 - - -, f 5;
#X floatatom 152 390 5 0 0 0 - - -, f 5;
#X msg 443 658 /p1 setaspectmode \$1;
#X msg 445 635 letterbox;
#X msg 508 636 fill;
#X msg 544 638 stretch;
#X msg 598 637 default;
#X text 451 611 broken;
#X floatatom 71 259 5 0 0 0 - - -, f 5;
#X obj 45 258 f;
#X obj 25 258 bng 15 250 50 0 empty empty empty 17 7 0 10 -262144 -1
-1;
#X floatatom 744 639 25 0 0 0 - - -, f 25;
#X obj 713 637 f;
#X obj 693 637 bng 15 250 50 0 empty empty empty 17 7 0 10 -262144
-1 -1;
#X msg 713 659 /p1 setposition \$1;
#X text 710 616 broken;
#X obj 15 86 t a, f 4;
#X obj 17 491 list prepend /p1;
#X msg 22 135 volume \$1;
#X msg 21 237 setalpha \$1;
#X msg 22 364 setvideopos \$1 \$2 \$3 \$4;
#X msg 22 431 setvideocroppos \$1 \$2 \$3 \$4;
#X msg 45 280 seek \$1;
#X msg 16 13 omxplayer --blank --loop --no-osd ~/media/test.mov;
#X msg 73 59 ratedown;
#X msg 132 59 volumedown;
#X obj 132 84 t a, f 4;
#X msg 204 59 unhidevideo;
#X obj 204 82 t a, f 4;
#X obj 72 86 t a, f 4;
#X msg 24 59 pause;
#X obj 305 677 t a, f 4;
#X msg 307 623 togglesubtitles;
#X msg 307 642 hidesubtitles;
#X msg 311 658 showsubtitles;
#X obj 26 157 hsl 128 15 0 10 0 0 empty empty empty -2 -8 0 10 -262144
-1 -1 0 1;
#X msg 23 195 rate \$1;
#X text 304 601 to be tested;
#X obj 47 343 pack f f f f, f 18;
#X obj 47 410 pack f f f f, f 18;
#X obj 15 314 t a;
#X obj 17 453 t a;
#X msg 73 36 rateup;
#X msg 23 36 stop;
#X msg 132 36 volumeup;
#X msg 204 36 hidevideo;
#X obj 357 121 hsl 128 15 0 10 0 0 empty empty empty -2 -8 0 10 -262144
-1 -1 0 1;
#X obj 359 184 hsl 128 15 0.9 1.15 0 0 empty empty empty -2 -8 0 10
-262144 -1 -1 0 1;
#X obj 358 226 hsl 128 15 0 255 0 0 empty empty empty -2 -8 0 10 -262144
-1 -1 0 1;
#X obj 351 523 qlimitor 100;
#X floatatom 380 329 5 0 0 0 - - -, f 5;
#X obj 356 351 t b;
#X floatatom 415 330 5 0 0 0 - - -, f 5;
#X floatatom 450 331 5 0 0 0 - - -, f 5;
#X floatatom 485 332 5 0 0 0 - - -, f 5;
#X obj 351 546 send \$0-OSC;
#X floatatom 380 396 5 0 0 0 - - -, f 5;
#X obj 356 418 t b;
#X floatatom 415 397 5 0 0 0 - - -, f 5;
#X floatatom 450 398 5 0 0 0 - - -, f 5;
#X floatatom 485 399 5 0 0 0 - - -, f 5;
#X floatatom 404 268 5 0 0 0 - - -, f 5;
#X obj 378 267 f;
#X obj 358 267 bng 15 250 50 0 empty empty empty 17 7 0 10 -262144
-1 -1;
#X obj 348 95 t a, f 4;
#X msg 355 144 volume \$1;
#X msg 354 246 setalpha \$1;
#X msg 355 373 setvideopos \$1 \$2 \$3 \$4;
#X msg 355 440 setvideocroppos \$1 \$2 \$3 \$4;
#X msg 378 289 seek \$1;
#X msg 406 68 ratedown;
#X msg 465 68 volumedown;
#X obj 465 93 t a, f 4;
#X msg 537 68 unhidevideo;
#X obj 537 91 t a, f 4;
#X obj 405 95 t a, f 4;
#X msg 357 68 pause;
#X obj 359 166 hsl 128 15 0 10 0 0 empty empty empty -2 -8 0 10 -262144
-1 -1 0 1;
#X msg 356 204 rate \$1;
#X obj 380 352 pack f f f f, f 18;
#X obj 380 419 pack f f f f, f 18;
#X obj 348 323 t a;
#X obj 350 462 t a;
#X msg 406 45 rateup;
#X msg 356 45 stop;
#X msg 465 45 volumeup;
#X msg 537 45 hidevideo;
#X obj 702 132 hsl 128 15 0 10 0 0 empty empty empty -2 -8 0 10 -262144
-1 -1 0 1;
#X obj 704 195 hsl 128 15 0.9 1.15 0 0 empty empty empty -2 -8 0 10
-262144 -1 -1 0 1;
#X obj 703 237 hsl 128 15 0 255 0 0 empty empty empty -2 -8 0 10 -262144
-1 -1 7400 1;
#X obj 696 534 qlimitor 100;
#X floatatom 725 340 5 0 0 0 - - -, f 5;
#X obj 701 362 t b;
#X floatatom 760 341 5 0 0 0 - - -, f 5;
#X floatatom 795 342 5 0 0 0 - - -, f 5;
#X floatatom 830 343 5 0 0 0 - - -, f 5;
#X obj 696 557 send \$0-OSC;
#X floatatom 725 407 5 0 0 0 - - -, f 5;
#X obj 701 429 t b;
#X floatatom 760 408 5 0 0 0 - - -, f 5;
#X floatatom 795 409 5 0 0 0 - - -, f 5;
#X floatatom 830 410 5 0 0 0 - - -, f 5;
#X floatatom 749 279 5 0 0 0 - - -, f 5;
#X obj 723 278 f;
#X obj 703 278 bng 15 250 50 0 empty empty empty 17 7 0 10 -262144
-1 -1;
#X obj 693 106 t a, f 4;
#X msg 700 155 volume \$1;
#X msg 699 257 setalpha \$1;
#X msg 700 384 setvideopos \$1 \$2 \$3 \$4;
#X msg 700 451 setvideocroppos \$1 \$2 \$3 \$4;
#X msg 723 300 seek \$1;
#X msg 751 79 ratedown;
#X msg 810 79 volumedown;
#X obj 810 104 t a, f 4;
#X msg 882 79 unhidevideo;
#X obj 882 102 t a, f 4;
#X obj 750 106 t a, f 4;
#X msg 702 79 pause;
#X obj 704 177 hsl 128 15 0 10 0 0 empty empty empty -2 -8 0 10 -262144
-1 -1 0 1;
#X msg 701 215 rate \$1;
#X obj 725 363 pack f f f f, f 18;
#X obj 725 430 pack f f f f, f 18;
#X obj 693 334 t a;
#X obj 695 473 t a;
#X msg 751 56 rateup;
#X msg 701 56 stop;
#X msg 810 56 volumeup;
#X msg 882 56 hidevideo;
#X msg 349 13 omxplayer --loop --no-osd ~/media/earth-and-technicians.mp4
;
#X msg 731 19 omxplayer --layer 3 --loop --no-osd ~/media/spinning-gyroscope-during-aste.mp4
;
#X obj 350 500 list prepend /p2;
#X obj 695 511 list prepend /p3;
#X connect 0 0 33 0;
#X connect 1 0 51 0;
#X connect 2 0 34 0;
#X connect 4 0 10 0;
#X connect 5 0 53 0;
#X connect 6 0 53 0;
#X connect 7 0 6 0;
#X connect 7 0 53 1;
#X connect 8 0 6 0;
#X connect 8 0 53 2;
#X connect 9 0 6 0;
#X connect 9 0 53 3;
#X connect 11 0 3 0;
#X connect 12 0 54 0;
#X connect 13 0 54 0;
#X connect 14 0 13 0;
#X connect 14 0 54 1;
#X connect 15 0 13 0;
#X connect 15 0 54 2;
#X connect 16 0 13 0;
#X connect 16 0 54 3;
#X connect 18 0 17 0;
#X connect 19 0 17 0;
#X connect 20 0 17 0;
#X connect 21 0 17 0;
#X connect 23 0 24 1;
#X connect 24 0 37 0;
#X connect 25 0 24 0;
#X connect 26 0 27 1;
#X connect 27 0 29 0;
#X connect 28 0 27 0;
#X connect 31 0 55 0;
#X connect 32 0 4 0;
#X connect 33 0 55 0;
#X connect 34 0 55 0;
#X connect 35 0 56 0;
#X connect 36 0 56 0;
#X connect 37 0 55 0;
#X connect 38 0 31 0;
#X connect 39 0 44 0;
#X connect 40 0 41 0;
#X connect 41 0 44 0;
#X connect 42 0 43 0;
#X connect 43 0 41 0;
#X connect 44 0 31 0;
#X connect 45 0 31 0;
#X connect 47 0 46 0;
#X connect 48 0 46 0;
#X connect 50 0 51 0;
#X connect 51 0 55 0;
#X connect 53 0 35 0;
#X connect 54 0 36 0;
#X connect 55 0 56 0;
#X connect 56 0 32 0;
#X connect 57 0 44 0;
#X connect 58 0 31 0;
#X connect 59 0 41 0;
#X connect 60 0 43 0;
#X connect 61 0 80 0;
#X connect 62 0 93 0;
#X connect 63 0 81 0;
#X connect 64 0 70 0;
#X connect 65 0 94 0;
#X connect 66 0 94 0;
#X connect 67 0 66 0;
#X connect 67 0 94 1;
#X connect 68 0 66 0;
#X connect 68 0 94 2;
#X connect 69 0 66 0;
#X connect 69 0 94 3;
#X connect 71 0 95 0;
#X connect 72 0 95 0;
#X connect 73 0 72 0;
#X connect 73 0 95 1;
#X connect 74 0 72 0;
#X connect 74 0 95 2;
#X connect 75 0 72 0;
#X connect 75 0 95 3;
#X connect 76 0 77 1;
#X connect 77 0 84 0;
#X connect 78 0 77 0;
#X connect 79 0 96 0;
#X connect 80 0 96 0;
#X connect 81 0 96 0;
#X connect 82 0 97 0;
#X connect 83 0 97 0;
#X connect 84 0 96 0;
#X connect 85 0 90 0;
#X connect 86 0 87 0;
#X connect 87 0 90 0;
#X connect 88 0 89 0;
#X connect 89 0 87 0;
#X connect 90 0 79 0;
#X connect 91 0 79 0;
#X connect 92 0 93 0;
#X connect 93 0 96 0;
#X connect 94 0 82 0;
#X connect 95 0 83 0;
#X connect 96 0 97 0;
#X connect 97 0 145 0;
#X connect 98 0 90 0;
#X connect 99 0 79 0;
#X connect 100 0 87 0;
#X connect 101 0 89 0;
#X connect 102 0 121 0;
#X connect 103 0 134 0;
#X connect 104 0 122 0;
#X connect 105 0 111 0;
#X connect 106 0 135 0;
#X connect 107 0 135 0;
#X connect 108 0 107 0;
#X connect 108 0 135 1;
#X connect 109 0 107 0;
#X connect 109 0 135 2;
#X connect 110 0 107 0;
#X connect 110 0 135 3;
#X connect 112 0 136 0;
#X connect 113 0 136 0;
#X connect 114 0 113 0;
#X connect 114 0 136 1;
#X connect 115 0 113 0;
#X connect 115 0 136 2;
#X connect 116 0 113 0;
#X connect 116 0 136 3;
#X connect 117 0 118 1;
#X connect 118 0 125 0;
#X connect 119 0 118 0;
#X connect 120 0 137 0;
#X connect 121 0 137 0;
#X connect 122 0 137 0;
#X connect 123 0 138 0;
#X connect 124 0 138 0;
#X connect 125 0 137 0;
#X connect 126 0 131 0;
#X connect 127 0 128 0;
#X connect 128 0 131 0;
#X connect 129 0 130 0;
#X connect 130 0 128 0;
#X connect 131 0 120 0;
#X connect 132 0 120 0;
#X connect 133 0 134 0;
#X connect 134 0 137 0;
#X connect 135 0 123 0;
#X connect 136 0 124 0;
#X connect 137 0 138 0;
#X connect 138 0 146 0;
#X connect 139 0 131 0;
#X connect 140 0 120 0;
#X connect 141 0 128 0;
#X connect 142 0 130 0;
#X connect 143 0 79 0;
#X connect 144 0 120 0;
#X connect 145 0 64 0;
#X connect 146 0 105 0;
