#N canvas 527 138 586 451 10;
#X obj 44 211 ggee/shell;
#X text 36 58 Player instance;
#X text 242 56 control instance;
#X obj 247 259 ggee/shell;
#X obj 248 298 print;
#X obj 247 107 ggee/getdir;
#X obj 247 73 bng 15 250 50 0 empty empty empty 17 7 0 10 -262144 -1
-1;
#X obj 247 195 list trim;
#X obj 330 261 print;
#X obj 247 144 list prepend bash;
#X obj 247 171 list append;
#X obj 44 83 inlet;
#X obj 400 75 inlet;
#X obj 44 116 route omxplayer;
#X obj 44 143 list prepend omxplayer;
#X obj 44 165 list trim;
#X obj 45 279 print player;
#X obj 101 246 print player done;
#X msg 17 28 omxplayer --loop --no-osd ~/media/test.mov;
#X obj 17 4 loadbang;
#X connect 0 0 16 0;
#X connect 0 1 17 0;
#X connect 3 0 4 0;
#X connect 5 0 9 0;
#X connect 6 0 5 0;
#X connect 7 0 3 0;
#X connect 7 0 8 0;
#X connect 9 0 10 0;
#X connect 10 0 7 0;
#X connect 11 0 13 0;
#X connect 13 0 14 0;
#X connect 14 0 15 0;
#X connect 15 0 0 0;
#X connect 18 0 13 0;
#X connect 19 0 18 0;
