#N canvas 81 161 966 578 10;
#X obj 44 347 ggee/shell;
#X text 36 8 Player instance;
#X text 193 125 control instance;
#X obj 487 165 ggee/getdir;
#X obj 466 404 list trim;
#X obj 466 372 list append, f 42;
#X obj 44 33 inlet;
#X obj 44 66 route omxplayer;
#X obj 44 268 list prepend omxplayer;
#X obj 44 301 list trim;
#X obj 45 415 print player;
#X obj 101 382 print player done;
#X obj 44 235 list prepend --dbus_name;
#X obj 56 140 symbol \$1;
#X obj 56 114 loadbang;
#X msg 110 114 bang;
#X obj 56 182 pd-osc/combine org.mpris.MediaPlayer2.omxplayer;
#X obj 56 162 t b a;
#X obj 45 207 list prepend org.mpris.MediaPlayer2.omxplayer;
#X text 229 17 1 = dbus instance name;
#X obj 727 272 symbol \$1;
#X obj 727 246 loadbang;
#X msg 781 246 bang;
#X obj 727 314 pd-osc/combine org.mpris.MediaPlayer2.omxplayer;
#X obj 727 294 t b a;
#X obj 466 213 pd-osc/combine dir /OMXdbuscontrol.sh;
#X obj 466 235 pd-osc/combine dir ";
#X obj 466 285 pd-osc/combine " dir;
#X obj 466 261 t b a;
#X obj 466 187 list;
#X obj 487 143 loadbang;
#X obj 467 122 t b a, f 42;
#X obj 467 89 inlet;
#X obj 466 340 list append org.mpris.MediaPlayer2.omxplayer;
#X msg 397 51 rate \$1;
#X obj 398 14 hsl 128 15 0 6 0 0 empty empty empty -2 -8 0 10 -262144
-1 -1 0 1;
#X obj 122 323 print \$1 player;
#X obj 132 32 r /\$1;
#N canvas 0 22 504 531 shells 0;
#X obj 12 14 inlet;
#X obj 82 96 + 1;
#X obj 26 94 i;
#X obj 66 184 sel 1;
#X msg 70 210 0;
#X obj 20 137 t a a;
#X obj 97 28 bng 15 250 50 0 empty empty empty 17 7 0 10 -262144 -1
-1;
#X obj 64 159 >= 10;
#X obj 43 46 t b a;
#X obj 21 273 route 0 1 2 3 4 5 6 7 8 9 10;
#X obj 26 599 ggee/shell;
#X obj 39 572 ggee/shell;
#X obj 54 544 ggee/shell;
#X obj 66 515 ggee/shell;
#X obj 81 489 ggee/shell;
#X obj 96 466 ggee/shell;
#X obj 110 438 ggee/shell;
#X obj 123 411 ggee/shell;
#X obj 138 383 ggee/shell;
#X obj 150 354 ggee/shell;
#X obj 165 328 ggee/shell;
#X obj 180 305 ggee/shell;
#X obj 22 240 list append;
#X msg 97 48 ls;
#X connect 0 0 8 0;
#X connect 1 0 2 1;
#X connect 2 0 1 0;
#X connect 2 0 5 0;
#X connect 3 0 4 0;
#X connect 4 0 2 1;
#X connect 5 0 22 0;
#X connect 5 1 7 0;
#X connect 6 0 23 0;
#X connect 7 0 3 0;
#X connect 8 0 2 0;
#X connect 8 1 22 1;
#X connect 9 0 10 0;
#X connect 9 1 11 0;
#X connect 9 2 12 0;
#X connect 9 3 13 0;
#X connect 9 4 14 0;
#X connect 9 5 15 0;
#X connect 9 6 16 0;
#X connect 9 7 17 0;
#X connect 9 8 18 0;
#X connect 9 9 19 0;
#X connect 9 10 20 0;
#X connect 9 11 21 0;
#X connect 22 0 9 0;
#X connect 23 0 8 0;
#X restore 466 461 pd shells;
#X obj 466 433 qlimitor 80;
#X connect 0 0 10 0;
#X connect 0 1 11 0;
#X connect 3 0 29 1;
#X connect 4 0 39 0;
#X connect 5 0 4 0;
#X connect 6 0 7 0;
#X connect 7 0 18 0;
#X connect 7 1 31 0;
#X connect 8 0 9 0;
#X connect 9 0 0 0;
#X connect 9 0 36 0;
#X connect 12 0 8 0;
#X connect 13 0 17 0;
#X connect 14 0 13 0;
#X connect 15 0 13 0;
#X connect 16 0 18 1;
#X connect 17 0 16 0;
#X connect 17 1 16 1;
#X connect 18 0 12 0;
#X connect 20 0 24 0;
#X connect 21 0 20 0;
#X connect 22 0 20 0;
#X connect 23 0 33 1;
#X connect 24 0 23 0;
#X connect 24 1 23 1;
#X connect 25 0 26 0;
#X connect 26 0 28 0;
#X connect 27 0 33 0;
#X connect 28 0 27 0;
#X connect 28 1 27 1;
#X connect 29 0 25 0;
#X connect 30 0 3 0;
#X connect 31 0 29 0;
#X connect 31 1 5 1;
#X connect 32 0 31 0;
#X connect 33 0 5 0;
#X connect 34 0 31 0;
#X connect 35 0 34 0;
#X connect 37 0 7 0;
#X connect 39 0 38 0;
