#N canvas 222 46 974 667 10;
#X text 36 8 Player instance;
#X text 131 256 control instance;
#X obj 487 165 ggee/getdir;
#X obj 466 404 list trim;
#X obj 466 372 list append, f 42;
#X obj 44 33 inlet;
#X obj 44 66 route omxplayer;
#X obj 44 438 list prepend omxplayer;
#X obj 44 335 list prepend --dbus_name;
#X obj 56 240 symbol \$1;
#X obj 56 214 loadbang;
#X msg 110 214 bang;
#X obj 56 282 pd-osc/combine org.mpris.MediaPlayer2.omxplayer;
#X obj 56 262 t b a;
#X obj 45 307 list prepend org.mpris.MediaPlayer2.omxplayer;
#X text 229 17 1 = dbus instance name;
#X obj 727 272 symbol \$1;
#X obj 727 246 loadbang;
#X msg 781 246 bang;
#X obj 727 314 pd-osc/combine org.mpris.MediaPlayer2.omxplayer;
#X obj 727 294 t b a;
#X obj 466 213 pd-osc/combine dir /OMXdbuscontrol.sh;
#X obj 466 235 pd-osc/combine dir ";
#X obj 466 285 pd-osc/combine " dir;
#X obj 466 261 t b a;
#X obj 466 187 list;
#X obj 487 143 loadbang;
#X obj 467 122 t b a, f 42;
#X obj 467 89 inlet;
#X obj 466 340 list append org.mpris.MediaPlayer2.omxplayer;
#X obj 132 32 r /\$1;
#N canvas 0 22 640 719 shells 0;
#X obj 12 14 inlet;
#X obj 82 96 + 1;
#X obj 26 94 i;
#X obj 66 184 sel 1;
#X msg 70 210 0;
#X obj 20 137 t a a;
#X obj 97 28 bng 15 250 50 0 empty empty empty 17 7 0 10 -262144 -1
-1;
#X obj 64 159 >= 10;
#X obj 43 46 t b a;
#X obj 21 293 route 0 1 2 3 4 5 6 7 8 9 10;
#X obj 216 341 ggee/shell;
#X obj 22 240 list append;
#X msg 97 48 ls;
#X obj 216 315 qlimitor 100;
#X obj 205 390 ggee/shell;
#X obj 205 364 qlimitor 100;
#X obj 188 440 ggee/shell;
#X obj 188 414 qlimitor 100;
#X obj 174 493 ggee/shell;
#X obj 174 467 qlimitor 100;
#X obj 159 544 ggee/shell;
#X obj 159 518 qlimitor 100;
#X obj 135 598 ggee/shell;
#X obj 135 572 qlimitor 100;
#X obj 119 648 ggee/shell;
#X obj 119 622 qlimitor 100;
#X obj 108 698 ggee/shell;
#X obj 108 672 qlimitor 100;
#X obj 87 750 ggee/shell;
#X obj 87 724 qlimitor 100;
#X obj 69 800 ggee/shell;
#X obj 69 774 qlimitor 100;
#X obj 49 851 ggee/shell;
#X obj 49 825 qlimitor 100;
#X obj 23 902 ggee/shell;
#X obj 23 876 qlimitor 100;
#X obj 21 266 list trim;
#X connect 0 0 8 0;
#X connect 1 0 2 1;
#X connect 2 0 1 0;
#X connect 2 0 5 0;
#X connect 3 0 4 0;
#X connect 4 0 2 1;
#X connect 5 0 11 0;
#X connect 5 1 7 0;
#X connect 6 0 12 0;
#X connect 7 0 3 0;
#X connect 8 0 2 0;
#X connect 8 1 11 1;
#X connect 9 0 35 0;
#X connect 9 1 33 0;
#X connect 9 2 31 0;
#X connect 9 3 29 0;
#X connect 9 4 27 0;
#X connect 9 5 25 0;
#X connect 9 6 23 0;
#X connect 9 7 21 0;
#X connect 9 8 19 0;
#X connect 9 9 17 0;
#X connect 9 10 15 0;
#X connect 9 11 13 0;
#X connect 11 0 36 0;
#X connect 12 0 8 0;
#X connect 13 0 10 0;
#X connect 15 0 14 0;
#X connect 17 0 16 0;
#X connect 19 0 18 0;
#X connect 21 0 20 0;
#X connect 23 0 22 0;
#X connect 25 0 24 0;
#X connect 27 0 26 0;
#X connect 29 0 28 0;
#X connect 31 0 30 0;
#X connect 33 0 32 0;
#X connect 35 0 34 0;
#X connect 36 0 9 0;
#X restore 466 441 pd shells;
#X text 229 34 2 = layer;
#X text 504 463 control instance;
#X obj 43 399 list prepend --layer;
#X obj 44 371 list prepend \$2;
#X obj 45 569 ggee/shell;
#X obj 45 470 t a b;
#X obj 45 500 list trim;
#X obj 58 535 print \$1 player;
#X msg 71 113 stop;
#X obj 44 88 t a b;
#X obj 96 183 spigot;
#X msg 70 158 1;
#X obj 70 136 t b a;
#X connect 2 0 25 1;
#X connect 3 0 31 0;
#X connect 4 0 3 0;
#X connect 5 0 6 0;
#X connect 6 0 41 0;
#X connect 6 1 27 0;
#X connect 7 0 37 0;
#X connect 8 0 35 0;
#X connect 9 0 13 0;
#X connect 10 0 9 0;
#X connect 11 0 9 0;
#X connect 12 0 14 1;
#X connect 13 0 12 0;
#X connect 13 1 12 1;
#X connect 14 0 8 0;
#X connect 16 0 20 0;
#X connect 17 0 16 0;
#X connect 18 0 16 0;
#X connect 19 0 29 1;
#X connect 20 0 19 0;
#X connect 20 1 19 1;
#X connect 21 0 22 0;
#X connect 22 0 24 0;
#X connect 23 0 29 0;
#X connect 24 0 23 0;
#X connect 24 1 23 1;
#X connect 25 0 21 0;
#X connect 26 0 2 0;
#X connect 27 0 25 0;
#X connect 27 1 4 1;
#X connect 28 0 27 0;
#X connect 29 0 4 0;
#X connect 30 0 6 0;
#X connect 34 0 7 0;
#X connect 35 0 34 0;
#X connect 37 0 38 0;
#X connect 38 0 36 0;
#X connect 38 0 39 0;
#X connect 40 0 44 0;
#X connect 41 0 14 0;
#X connect 41 1 40 0;
#X connect 42 0 27 0;
#X connect 43 0 42 1;
#X connect 44 0 43 0;
#X connect 44 1 42 0;
