#N canvas 0 22 450 300 10;
#X obj 162 120 t a b;
#X obj 140 234 list;
#X obj 190 154 spigot;
#X obj 245 103 loadbang;
#X msg 245 125 1;
#X msg 241 197 0;
#X msg 230 257 1;
#X obj 179 180 t b b b;
#X obj 139 268 list trim;
#X obj 137 289 outlet;
#X obj 162 48 inlet;
#X obj 198 220 delay \$1;
#X connect 0 0 1 1;
#X connect 0 1 2 0;
#X connect 1 0 8 0;
#X connect 2 0 7 0;
#X connect 3 0 4 0;
#X connect 4 0 2 1;
#X connect 5 0 2 1;
#X connect 6 0 2 1;
#X connect 7 0 1 0;
#X connect 7 1 11 0;
#X connect 7 2 5 0;
#X connect 8 0 9 0;
#X connect 10 0 0 0;
#X connect 11 0 6 0;
