#N canvas 0 22 480 349 10;
#X obj 140 234 list;
#X obj 190 154 spigot;
#X obj 245 103 loadbang;
#X msg 245 125 1;
#X msg 241 197 0;
#X msg 230 257 1;
#X obj 179 180 t b b b;
#X obj 139 268 list trim;
#X obj 141 298 outlet;
#X obj 162 48 inlet;
#X obj 198 220 delay \$1;
#X msg 38 56 asdf;
#X obj 125 109 t a b a;
#X connect 0 0 7 0;
#X connect 1 0 6 0;
#X connect 2 0 3 0;
#X connect 3 0 1 1;
#X connect 4 0 1 1;
#X connect 5 0 1 1;
#X connect 6 0 0 0;
#X connect 6 1 10 0;
#X connect 6 2 4 0;
#X connect 7 0 8 0;
#X connect 9 0 12 0;
#X connect 10 0 5 0;
#X connect 11 0 12 0;
#X connect 12 1 1 0;
#X connect 12 2 0 1;
